<?xml version="1.0" encoding="utf-8"?>
<!-- Generator: Adobe Illustrator 28.0.0, SVG Export Plug-In . SVG Version: 6.00 Build 0)  -->
<svg version="1.1" id="Layer_1" xmlns="http://www.w3.org/2000/svg" xmlns:xlink="http://www.w3.org/1999/xlink" x="0px" y="0px"
	 viewBox="0 0 216 216" style="enable-background:new 0 0 216 216;" xml:space="preserve">
<style type="text/css">
	.st0{fill:#E38DD9;}
	.st1{fill:#9B2368;}
	.st2{fill:#581520;}
	.st3{fill:#FF454F;}
	.st4{fill:#EEB3B7;}
	.st5{fill:#FFB997;}
	.st6{fill:#FF822C;}
	.st7{fill:#FFB451;}
	.st8{fill:#D6A680;}
	.st9{fill:#EFDC77;}
	.st10{fill:#91C063;}
	.st11{fill:#16975C;}
	.st12{fill:#103842;}
	.st13{fill:#67BFD7;}
	.st14{fill:#9CC8E5;}
	.st15{fill:#3D84D5;}
	.st16{fill:#00194E;}
	.st17{fill:#211255;}
	.st18{fill:#7B58CF;}
	.st19{fill:#CDA8E7;}
	.st20{fill:#B179E8;}
	.st21{fill:#8B2D98;}
	.st22{fill:#9E9FA3;}
	.st23{fill:#FFFFFF;}
</style>
<rect x="16" y="16" class="st0" width="29.1" height="29.1"/>
<rect x="54.7" y="16" class="st1" width="29.1" height="29.1"/>
<rect x="93.4" y="16" class="st2" width="29.1" height="29.1"/>
<rect x="132.1" y="16" class="st3" width="29.1" height="29.1"/>
<rect x="170.8" y="16" class="st4" width="29.1" height="29.1"/>
<rect x="16" y="54.7" class="st5" width="29.1" height="29.1"/>
<rect x="54.7" y="54.7" class="st6" width="29.1" height="29.1"/>
<rect x="93.4" y="54.7" class="st7" width="29.1" height="29.1"/>
<rect x="132.1" y="54.7" class="st8" width="29.1" height="29.1"/>
<rect x="170.8" y="54.7" class="st9" width="29.1" height="29.1"/>
<rect x="16" y="93.4" class="st10" width="29.1" height="29.1"/>
<rect x="54.7" y="93.4" class="st11" width="29.1" height="29.1"/>
<rect x="132.1" y="93.4" class="st12" width="29.1" height="29.1"/>
<rect x="170.8" y="93.4" class="st13" width="29.1" height="29.1"/>
<rect x="16" y="132.1" class="st14" width="29.1" height="29.1"/>
<rect x="54.7" y="132.1" class="st15" width="29.1" height="29.1"/>
<rect x="93.4" y="132.1" class="st16" width="29.1" height="29.1"/>
<rect x="132.1" y="132.1" class="st17" width="29.1" height="29.1"/>
<rect x="170.8" y="132.1" class="st18" width="29.1" height="29.1"/>
<rect x="16" y="170.8" class="st19" width="29.1" height="29.1"/>
<rect x="54.7" y="170.8" class="st20" width="29.1" height="29.1"/>
<rect x="93.4" y="170.8" class="st21" width="29.1" height="29.1"/>
<rect x="132.1" y="170.8" class="st22" width="29.1" height="29.1"/>
<rect x="170.8" y="170.8" width="29.1" height="29.1"/>
<polygon class="st23" points="108,68.3 99.2,95.5 70.6,95.5 93.7,112.3 84.9,139.5 108,122.7 131.1,139.5 122.3,112.3 145.4,95.5 
	116.8,95.5 "/>
<path d="M148.3,94.5c-0.4-1.2-1.6-2.1-2.9-2.1H119l-8.2-25.1c-0.4-1.2-1.6-2.1-2.9-2.1s-2.5,0.8-2.9,2.1L97,92.5H70.6
	c-1.3,0-2.5,0.8-2.9,2.1s0,2.6,1.1,3.4l21.4,15.5L82,138.5c-0.4,1.2,0,2.6,1.1,3.4c0.5,0.4,1.1,0.6,1.8,0.6c0.6,0,1.2-0.2,1.8-0.6
	l21.4-15.5l21.4,15.5c0.5,0.4,1.1,0.6,1.8,0.6s1.2-0.2,1.8-0.6c1.1-0.8,1.5-2.1,1.1-3.4l-8.2-25.1l21.4-15.5
	C148.3,97.1,148.7,95.8,148.3,94.5z M122.3,112.3l8.8,27.2L108,122.7l-23.1,16.8l8.8-27.2L70.6,95.5h28.6l8.8-27.2l8.8,27.2h28.6
	L122.3,112.3z"/>
</svg>
