<?xml version="1.0" encoding="utf-8"?>
<!-- Generator: Adobe Illustrator 28.0.0, SVG Export Plug-In . SVG Version: 6.00 Build 0)  -->
<svg version="1.1" id="Layer_1" xmlns="http://www.w3.org/2000/svg" xmlns:xlink="http://www.w3.org/1999/xlink" x="0px" y="0px"
	 viewBox="0 0 16 16" style="enable-background:new 0 0 16 16;" xml:space="preserve">
<g>
	<polygon points="7.5,5.6 11.8,6.1 11.8,7.1 8.5,10.2 11.4,10.4 11.4,11.4 6.9,11 6.9,9.9 9.9,6.7 7.3,6.5 	"/>
	<polygon points="7.1,3.2 2.6,6.7 6.3,7.5 5.8,8.7 0.3,7.5 0.5,6.3 5,2.8 2,2.2 2.2,0.9 7.3,2.2 	"/>
	<polygon points="14.5,14.5 14.2,15.1 11.4,13.8 11.6,13.2 14.5,11.8 12.6,11 12.8,10.4 15.7,11.6 15.5,12.2 12.6,13.6 	"/>
</g>
</svg>
